<svg width="28" height="55" viewBox="0 0 28 55" fill="none" xmlns="http://www.w3.org/2000/svg">
<path d="M7.00003 47.0429L13.75 53.8633L20.5 47.0429" stroke="#F2F2F2" stroke-width="2.25" stroke-linecap="round" stroke-linejoin="round"/>
<path d="M7.00003 37.9491L13.75 44.7695L20.5 37.9491" stroke="#F2F2F2" stroke-width="2.25" stroke-linecap="round" stroke-linejoin="round"/>
<g clip-path="url(#clip0_94_134)">
<path d="M13.0645 0.469017C11.3242 0.666169 10.1008 1.0658 8.82462 1.86506C6.36192 3.40497 4.72188 5.99458 4.33692 8.92521C4.2209 9.85768 4.2209 18.2979 4.33692 19.2304C4.66387 21.7507 5.91368 24.0153 7.84376 25.5818C9.19376 26.6795 10.6914 27.3455 12.4316 27.6173C13.0065 27.7079 14.4936 27.7079 15.0684 27.6173C17.1883 27.2816 18.918 26.3971 20.4262 24.8732C21.8658 23.4132 22.7254 21.7347 23.1262 19.6193C23.2527 18.932 23.2844 9.90564 23.1631 8.94652C22.6094 4.64117 19.4084 1.26295 15.2266 0.564929C14.7783 0.490331 13.4072 0.42639 13.0645 0.469017ZM14.752 2.32331C17.2305 2.659 19.3662 4.18825 20.5527 6.47414C20.9693 7.27873 21.2119 8.02471 21.3754 9.01579C21.4809 9.67652 21.4809 18.4631 21.3754 19.1664C21.1012 20.9621 20.3207 22.4807 19.0182 23.7489C17.8316 24.8998 16.3815 25.6085 14.752 25.8323C11.5563 26.2639 8.4713 24.6227 6.94727 21.6814C6.53067 20.8768 6.28809 20.1309 6.12462 19.1398C6.01915 18.4791 6.01915 9.67652 6.12462 9.01579C6.28809 8.02471 6.53067 7.27873 6.94727 6.47414C8.4713 3.53286 11.5563 1.8917 14.752 2.32331Z" fill="#F2F2F2"/>
<path d="M13.4969 7.93945C13.3018 8.00339 13.0065 8.26981 12.9274 8.46164C12.8694 8.60017 12.8536 9.01046 12.8536 10.3852C12.8536 11.9731 12.8641 12.1542 12.9538 12.3514C13.1067 12.6871 13.3335 12.8256 13.7501 12.8256C14.1667 12.8256 14.3934 12.6871 14.5464 12.3514C14.636 12.1542 14.6465 11.9731 14.6465 10.3745C14.6465 8.41368 14.6465 8.3977 14.2774 8.0993C14.0823 7.94478 13.7237 7.87018 13.4969 7.93945Z" fill="#F2F2F2"/>
</g>
<defs>
<clipPath id="clip0_94_134">
<rect width="27" height="27.2815" fill="white" transform="translate(0.250031 0.437042)"/>
</clipPath>
</defs>
</svg>
