<svg width="34" height="48" viewBox="0 0 34 48" fill="none" xmlns="http://www.w3.org/2000/svg">
<path d="M14.3865 5.4565C13.7415 6.2735 12.8385 7.5205 11.6775 9.1975C11.613 9.2835 11.398 9.53075 11.0325 9.93925C10.6885 10.3262 10.5165 10.6165 10.5165 10.81C10.5165 11.025 10.71 11.3367 11.097 11.7452C11.484 12.1537 11.7097 12.3902 11.7742 12.4547C12.0967 12.8632 12.6235 13.4545 13.3545 14.2285C14.666 15.6475 15.698 16.8515 16.4505 17.8405C17.2245 18.808 17.6115 19.6357 17.6115 20.3237C17.6115 20.9687 17.418 21.6245 17.031 22.291C16.6655 22.9575 16.214 23.2907 15.6765 23.2907C15.5045 23.2907 15.311 23.237 15.096 23.1295C14.7305 22.936 14.3005 22.5705 13.806 22.033C13.333 21.474 12.9137 20.9365 12.5482 20.4205C12.2687 20.0335 11.527 19.1305 10.323 17.7115C9.03299 16.271 8.22674 15.2927 7.90424 14.7767C7.30224 15.6582 6.74324 16.5397 6.22724 17.4212C5.71124 18.2812 5.36724 18.851 5.19524 19.1305C4.57174 20.227 4.03424 21.1085 3.58274 21.775C3.32474 22.162 2.90549 22.6027 2.32499 23.0972C1.74449 23.5702 1.28224 23.8067 0.938241 23.8067C0.615741 23.8067 0.454491 23.5595 0.454491 23.065C0.454491 22.3555 0.680241 21.5922 1.13174 20.7752C1.58324 19.9367 2.19599 18.98 2.96999 17.905L3.61499 16.9697C3.67949 16.8837 3.95899 16.5182 4.45349 15.8732C4.86199 15.3572 5.27049 14.8197 5.67899 14.2607C6.08749 13.7017 6.32399 13.2932 6.38849 13.0352C6.45299 12.7557 6.39924 12.444 6.22724 12.1C6.05524 11.756 5.79724 11.326 5.45324 10.81C5.32424 10.638 5.19524 10.4552 5.06624 10.2617C4.91574 10.0037 4.66849 9.61675 4.32449 9.10075C3.72249 8.19775 3.24949 7.4345 2.90549 6.811C2.56149 6.166 2.31424 5.51025 2.16374 4.84375C2.09924 4.58575 2.06699 4.26325 2.06699 3.87625C2.06699 3.08075 2.21749 2.34975 2.51849 1.68325C2.84099 0.995248 3.32474 0.586748 3.96974 0.457749C4.33524 0.393248 4.59324 0.522249 4.74374 0.84475C4.91574 1.16725 5.06624 1.64025 5.19524 2.26375C5.25974 2.73675 5.35649 3.0915 5.48549 3.328C5.93699 4.2095 6.42074 5.048 6.93674 5.8435C7.47424 6.6175 8.23749 7.6925 9.22649 9.0685C10.5165 7.3055 11.5055 5.994 12.1935 5.134L12.903 4.1665C13.376 3.5215 13.7737 3.0055 14.0962 2.6185C14.4402 2.21 14.795 1.866 15.1605 1.5865C15.483 1.35 15.7732 1.23175 16.0312 1.23175C16.2247 1.23175 16.3752 1.307 16.4827 1.4575C16.5902 1.5865 16.644 1.76925 16.644 2.00575C16.644 2.13475 16.601 2.34975 16.515 2.65075C16.4075 2.97325 16.2355 3.29575 15.999 3.61825C15.7625 3.91925 15.4615 4.26325 15.096 4.65025C15.0745 4.67175 14.838 4.9405 14.3865 5.4565ZM23.2676 18.292C25.5251 16.5505 27.2988 14.7015 28.5888 12.745C26.8688 12.229 25.1381 11.1862 23.3966 9.61675C23.3536 11.5732 23.3106 14.465 23.2676 18.292ZM32.5878 10.9712C32.7383 11.0787 32.8136 11.2185 32.8136 11.3905C32.8136 11.541 32.7706 11.6915 32.6846 11.842C31.5451 14.035 30.0401 15.9807 28.1696 17.6792C26.2991 19.3777 24.0308 21.0762 21.3648 22.7747C21.1068 22.9252 20.8166 23.065 20.4941 23.194C20.1716 23.3015 19.8598 23.3552 19.5588 23.3552C19.2363 23.3552 18.9568 23.2692 18.7203 23.0972C18.4623 22.9037 18.3333 22.6672 18.3333 22.3877C18.3333 22.0222 18.5376 21.6997 18.9461 21.4202C18.9891 21.3987 19.0321 21.3665 19.0751 21.3235C19.1181 21.2805 19.1826 21.2375 19.2686 21.1945L19.3976 13.1965C19.4406 11.455 19.4836 8.79975 19.5266 5.23075C19.5051 5.18775 19.4943 5.1125 19.4943 5.005C19.4943 4.962 19.5158 4.8545 19.5588 4.6825V4.32775C19.5803 3.91925 19.8598 3.57525 20.3973 3.29575C20.9348 2.99475 21.5046 2.84425 22.1066 2.84425C22.5151 2.84425 22.8376 2.9195 23.0741 3.07C23.3321 3.2205 23.4611 3.457 23.4611 3.7795V4.102C26.0626 7.6925 28.9006 9.8855 31.9751 10.681C32.2976 10.7885 32.5018 10.8852 32.5878 10.9712Z" fill="url(#paint0_linear_55_2)"/>
<path d="M15.941 43.4527C16.2635 43.5602 16.4248 43.7537 16.4248 44.0332C16.4248 44.3772 16.2205 44.7535 15.812 45.162C15.3605 45.6135 14.78 45.8392 14.0705 45.8392C13.7265 45.8392 13.4363 45.7962 13.1998 45.7102C12.0603 45.3447 11.0283 45.162 10.1038 45.162C8.49129 45.162 6.84654 45.678 5.16954 46.71C4.89004 46.9035 4.54604 47.0647 4.13754 47.1937C3.75054 47.3012 3.38504 47.355 3.04104 47.355C2.71854 47.355 2.46054 47.3012 2.26704 47.1937C2.07354 47.0647 1.97679 46.8712 1.97679 46.6132C1.97679 46.4627 1.99829 46.3337 2.04129 46.2262C2.66479 44.4847 3.15929 42.9152 3.52479 41.5177C3.91179 40.1202 4.16979 38.7012 4.29879 37.2607C4.49229 35.3257 4.58904 33.9067 4.58904 33.0037C4.58904 30.6172 4.12679 28.7897 3.20229 27.5212C3.09479 27.3922 3.04104 27.2202 3.04104 27.0052C3.04104 26.5752 3.34204 26.1775 3.94404 25.812C4.54604 25.425 5.13729 25.2315 5.71779 25.2315C6.10479 25.2315 6.38429 25.3175 6.55629 25.4895C6.83579 25.597 7.01854 25.769 7.10454 26.0055C7.64204 27.4245 8.38379 28.6285 9.32979 29.6175C10.2758 30.585 11.3938 31.0687 12.6838 31.0687C12.9203 31.0687 13.275 31.0257 13.748 30.9397C14.049 30.8967 14.2425 30.8752 14.3285 30.8752C14.694 30.8752 14.9628 30.9612 15.1348 31.1332C15.3283 31.2837 15.425 31.4987 15.425 31.7782C15.425 32.0792 15.296 32.3802 15.038 32.6812C14.8015 32.9822 14.479 33.1972 14.0705 33.3262C13.189 33.6272 12.3075 33.7777 11.426 33.7777C10.3725 33.7777 9.36204 33.5627 8.39454 33.1327C8.35154 34.3367 8.29779 35.2397 8.23329 35.8417L8.00754 37.8735C8.84604 37.723 9.68454 37.594 10.523 37.4865L10.9745 37.4542C11.8345 37.4542 12.2645 37.7445 12.2645 38.325C12.2645 38.712 12.0495 39.056 11.6195 39.357C11.1895 39.658 10.7488 39.8515 10.2973 39.9375C9.63079 40.0665 8.71704 40.2062 7.55604 40.3567C7.31954 41.4102 7.06154 42.3992 6.78204 43.3237C8.20104 42.8077 9.64154 42.5497 11.1035 42.5497C12.716 42.5497 14.3285 42.8507 15.941 43.4527ZM30.4687 26.199C30.7052 26.027 30.9954 25.8765 31.3394 25.7475C31.6834 25.6185 32.0059 25.554 32.3069 25.554C32.5434 25.554 32.7584 25.6185 32.9519 25.7475C33.2099 25.9195 33.3389 26.156 33.3389 26.457C33.3389 26.8225 33.1669 27.1557 32.8229 27.4567C31.7694 28.3812 30.9094 29.5207 30.2429 30.8752C29.5979 32.2082 28.9529 33.8422 28.3079 35.7772C27.4694 38.3357 26.4804 41.7865 25.3409 46.1295C25.2334 46.495 24.8679 46.882 24.2444 47.2905C23.6209 47.6775 23.0404 47.871 22.5029 47.871C22.0299 47.871 21.7182 47.6667 21.5677 47.2582C19.5682 41.5607 18.5039 35.3257 18.3749 28.5532C18.3534 28.1017 18.6759 27.6717 19.3424 27.2632C20.0304 26.8547 20.6754 26.6505 21.2774 26.6505C21.9009 26.6505 22.2127 26.887 22.2127 27.36C22.2127 31.3375 22.6534 35.272 23.5349 39.1635C24.0939 37.2715 24.6314 35.659 25.1474 34.326C25.8569 32.4125 26.6094 30.7892 27.4049 29.4562C28.2004 28.1017 29.2217 27.016 30.4687 26.199Z" fill="white"/>
<defs>
<linearGradient id="paint0_linear_55_2" x1="16.5" y1="3" x2="16.5" y2="49" gradientUnits="userSpaceOnUse">
<stop stop-color="#F21B38"/>
<stop offset="1" stop-color="#991526"/>
</linearGradient>
</defs>
</svg>
